PathFileType	4	(X/Y/Z)	s04c0403.trc
DataRate	CameraRate	NumFrames	NumMarkers	Units	OrigDataRate	OrigDataStartFrame	OrigNumFrames
200	200	5	50	mm	200	1500	2000
Frame#	Time	racr			lacr			c7			jug			rlel			rdr			llel			ldr			s2			lic			ric			lasi			rasi			rpsi			lpsi			rgt			lgt			rth1			rth2			rth3			rth4			rlfc			rmfc			rsh1			rsh2			rsh3			rsh4			rlmal			rmmal			rcal			rtoe			rmt5			lth1			lth2			lth4			lth3			llfc			lmfc			lsh1			lsh2			lsh3			lsh4			llmal			lmmal			lcal			ltoe			lmt5			SBIKE			LBIKE			RBIKE			
		X1	Y1	Z1	X2	Y2	Z2	X3	Y3	Z3	X4	Y4	Z4	X5	Y5	Z5	X6	Y6	Z6	X7	Y7	Z7	X8	Y8	Z8	X9	Y9	Z9	X10	Y10	Z10	X11	Y11	Z11	X12	Y12	Z12	X13	Y13	Z13	X14	Y14	Z14	X15	Y15	Z15	X16	Y16	Z16	X17	Y17	Z17	X18	Y18	Z18	X19	Y19	Z19	X20	Y20	Z20	X21	Y21	Z21	X22	Y22	Z22	X23	Y23	Z23	X24	Y24	Z24	X25	Y25	Z25	X26	Y26	Z26	X27	Y27	Z27	X28	Y28	Z28	X29	Y29	Z29	X30	Y30	Z30	X31	Y31	Z31	X32	Y32	Z32	X33	Y33	Z33	X34	Y34	Z34	X35	Y35	Z35	X36	Y36	Z36	X37	Y37	Z37	X38	Y38	Z38	X39	Y39	Z39	X40	Y40	Z40	X41	Y41	Z41	X42	Y42	Z42	X43	Y43	Z43	X44	Y44	Z44	X45	Y45	Z45	X46	Y46	Z46	X47	Y47	Z47	X48	Y48	Z48	X49	Y49	Z49	X50	Y50	Z50	
1500	7.5000	858.085890	1235.837465	-95.183185	840.187687	1228.095946	-427.701335	887.288394	1314.079100	-265.629911	805.150520	1183.989883	-269.483108	603.402296	1145.753688	93.678381	708.039177	942.047429	-60.524963	603.611944	1156.988702	-597.781545	689.632501	934.578194	-501.707300	289.395990	1286.722559	-344.137342	458.274069	1211.095040	-459.067701	402.283960	1299.020575	-155.171571	473.138347	1162.827902	-407.578277	442.264210	1238.406643	-183.675423	322.385916	1331.037129	-307.060599	337.026688	1313.236434	-377.810185	356.748009	1261.614867	-135.135649	378.576841	1132.180666	-480.401412	458.288913	1138.864214	-109.964652	531.214700	1089.014087	-114.241429	571.584248	1014.283959	-109.843421	554.708878	1110.610886	-135.033786	653.439262	895.113593	-128.025492	639.410908	873.508299	-244.274360	557.424826	820.511120	-109.070719	506.465904	744.345703	-119.914833	428.240717	710.910293	-128.467569	531.312538	720.760073	-136.195166	320.903382	596.185947	-136.809893	347.504684	587.696908	-218.231983	248.655643	605.929717	-176.212412	479.907306	416.169456	-163.862831	411.689203	435.669565	-108.623747	372.493939	1048.979010	-491.150367	393.449693	964.658995	-488.633534	427.609812	964.708920	-477.830690	368.781723	878.990466	-490.664345	343.061403	713.556547	-470.696463	358.705179	679.482776	-359.047801	283.414644	599.392559	-490.579869	255.419644	519.655412	-469.539190	190.364147	459.305226	-468.501640	280.970309	506.951471	-441.817999	107.958741	335.733319	-464.012820	0.000000	0.000000	-0.000000	38.369213	369.847987	-424.026112	237.648962	139.935007	-405.410492	165.431661	163.809860	-471.491112	-184.754922	930.649848	-286.014523	-17.598525	79.518823	-485.208757	-17.522355	79.495383	-84.573811	
1501	7.5050	857.862396	1232.489751	-95.509391	839.342484	1228.822522	-427.780845	887.510101	1313.255617	-265.567077	804.623978	1183.729475	-271.184558	603.070216	1145.167504	94.813937	707.943138	942.013692	-60.014050	603.233010	1157.014329	-597.540621	689.707642	934.846934	-501.318099	290.118031	1290.596633	-342.023136	457.652799	1214.798109	-458.258045	403.101089	1300.393125	-153.562520	473.086229	1165.634661	-407.533792	442.178589	1239.438382	-182.584361	323.482687	1334.754694	-304.652343	335.911715	1317.628233	-373.708879	357.187476	1263.267069	-133.858288	378.972882	1135.942206	-479.779508	457.527724	1138.836432	-109.531679	529.495527	1087.956922	-114.261956	568.554653	1012.417122	-110.595789	553.164626	1109.236315	-135.208045	648.964322	891.618990	-129.436618	634.121873	870.323917	-244.819527	554.530960	814.512501	-109.582159	505.371989	737.634635	-119.544302	427.461495	702.400622	-128.509817	530.323087	714.322874	-137.143379	321.861210	586.133071	-136.498290	348.055920	578.824807	-218.234273	248.714295	593.282877	-175.411277	487.395637	412.747632	-163.617648	418.572933	429.493673	-108.345710	375.039310	1051.687557	-490.225530	397.949927	967.851030	-487.447295	431.931934	968.759403	-475.894049	375.419351	881.749304	-490.298623	351.978772	716.434763	-471.006374	367.174271	682.062037	-359.711290	289.377090	603.960879	-491.038904	259.205595	525.082589	-469.763354	192.451372	466.527929	-468.656920	284.226198	511.651477	-441.603835	106.037195	345.066958	-463.850380	0.000000	0.000000	-0.000000	37.548512	380.735885	-423.546190	229.417005	144.359041	-405.431171	158.055590	170.839103	-471.442483	-184.615489	930.728480	-285.619665	-17.578138	79.640110	-485.148823	-17.514406	79.488277	-84.537753	
1502	7.5100	857.888237	1229.503781	-95.992889	838.496401	1229.838483	-428.203360	887.623603	1312.518039	-265.596008	804.156767	1183.460751	-272.681497	603.020498	1144.747079	95.626675	707.911774	941.987548	-59.590803	602.877668	1157.039876	-597.520243	689.798726	935.159003	-501.099336	290.738091	1294.459586	-339.891938	456.953280	1218.523682	-457.230580	403.931301	1301.268510	-151.826241	472.443479	1168.327136	-407.276684	442.139024	1240.092298	-181.387071	324.473879	1338.078161	-301.917274	336.521360	1321.255902	-370.893098	357.567859	1264.448533	-132.431397	379.219135	1139.869347	-479.644159	456.547552	1138.088366	-109.085934	527.635479	1086.237301	-114.146960	565.253311	1009.674522	-111.296705	551.560201	1106.867953	-135.267288	643.959992	887.239261	-130.695206	628.320812	866.589650	-244.892101	550.994291	807.319997	-109.671493	503.603388	729.574380	-120.283041	426.433857	692.811098	-128.978279	528.947102	706.932512	-139.055788	322.544552	575.477819	-136.443096	348.520896	568.887406	-218.481888	248.984348	579.923793	-175.068009	494.237917	408.480131	-162.963656	424.646940	422.642824	-107.732256	377.801241	1054.437271	-489.271769	402.902587	971.203811	-486.284885	436.566077	972.868999	-473.932826	382.676845	884.451671	-489.942785	361.711690	719.452587	-471.189518	376.237593	684.780290	-360.324492	295.981021	608.708168	-491.639924	263.561105	530.827336	-469.996186	195.098134	474.199654	-468.904926	287.920897	517.166172	-441.850811	104.635224	354.793519	-463.942097	0.000000	0.000000	-0.000000	36.990330	392.032860	-423.384617	221.579026	149.356755	-405.347119	151.218740	178.330446	-471.237181	-184.443098	930.833664	-285.229175	-17.558919	80.042424	-485.356687	-17.502775	79.506254	-84.495124	
1503	7.5150	858.057338	1227.010481	-96.789824	837.420523	1230.955617	-428.466640	887.706004	1311.984583	-265.856032	803.575566	1183.455170	-274.163487	603.106065	1144.593613	96.224060	708.562136	942.303934	-59.261426	602.494013	1157.130423	-597.772761	690.001313	935.482757	-501.097579	291.247987	1297.866499	-337.840145	456.380361	1222.148772	-456.258127	404.734505	1301.766271	-149.951240	472.173914	1171.385987	-407.678164	442.149191	1240.389924	-180.106935	325.385634	1341.052205	-299.240074	339.034922	1324.159364	-369.827411	357.850430	1264.931724	-130.926311	379.464023	1143.665790	-478.924611	455.262534	1136.561449	-108.535985	525.472052	1083.543648	-114.186348	561.947803	1006.192827	-111.815837	549.804200	1103.807047	-134.998486	638.523046	882.095869	-131.823471	621.764818	861.957141	-245.701555	547.433629	799.119043	-110.236834	501.270978	720.635471	-121.209064	425.101994	682.353930	-129.605363	527.319958	698.722429	-140.142318	323.204730	564.166541	-136.693359	349.232334	558.120812	-218.923968	249.591059	565.850975	-175.001194	500.555824	403.316768	-162.525637	430.518318	415.084390	-107.434436	380.752388	1057.109581	-488.148851	408.125152	974.583306	-485.047861	441.487861	977.167662	-472.035610	390.444276	887.394019	-489.547373	371.925940	722.653495	-471.535274	385.594041	687.729127	-360.701275	303.103037	613.636745	-492.101302	268.311580	536.877633	-470.179219	198.208062	482.279707	-469.177255	292.033928	522.669419	-441.845428	103.461327	365.083659	-464.267875	0.000000	0.000000	-0.000000	36.686494	403.760608	-423.454274	214.118956	155.159639	-404.848777	144.959161	186.502437	-470.910131	-184.296822	930.944485	-284.850471	-17.564387	80.180030	-485.306190	-17.475197	79.476876	-84.456889	
1504	7.5200	858.395653	1224.858506	-97.818062	835.768865	1231.880283	-428.020708	887.687151	1311.578678	-266.358380	802.740346	1183.674817	-275.600144	603.434367	1144.712353	96.552484	707.842090	942.118307	-58.775393	602.001984	1157.295969	-598.272231	690.246404	935.885707	-501.205222	291.948771	1301.306373	-335.797178	455.714932	1225.620415	-455.125038	405.543320	1301.797476	-148.022945	472.028319	1174.183113	-406.014294	442.212739	1240.352667	-178.767344	326.211586	1343.625946	-296.440166	341.013636	1327.009352	-368.127353	357.974955	1264.840219	-129.286305	380.023687	1147.486533	-478.302804	453.653773	1134.432401	-107.929313	522.990880	1079.672947	-113.925026	558.213120	1002.164077	-112.325772	547.850984	1100.193842	-134.474194	632.775823	876.361850	-132.857168	615.111284	856.957172	-246.343118	543.555095	790.113762	-110.793645	498.951495	711.130730	-122.464056	423.447989	671.227987	-130.251243	525.156500	689.933928	-142.225110	324.048751	552.233045	-136.954513	350.190236	546.771091	-219.477658	250.708174	551.721691	-175.078007	506.351090	396.908306	-162.327713	436.111374	406.873384	-107.349974	383.906916	1059.803612	-486.972872	413.643689	978.050172	-483.898100	446.638148	981.492727	-470.109045	398.536450	890.284662	-489.045270	382.611157	725.855761	-471.803940	395.055049	690.818783	-360.974364	310.590428	618.728645	-492.442548	273.383187	543.077803	-470.422508	201.560355	490.740926	-469.518804	296.480769	528.370447	-441.851501	103.070870	375.414308	-464.293098	0.000000	0.000000	-0.000000	36.918724	416.249575	-423.755027	206.819504	161.717301	-403.824922	139.290281	195.514838	-470.190514	-184.131569	931.073807	-284.386328	-17.558391	80.388341	-485.317548	-17.507653	79.539705	-84.428329	
